<?xml version="1.0" encoding="utf-8" standalone="no"?>
<!DOCTYPE svg PUBLIC "-//W3C//DTD SVG 1.1//EN"
  "http://www.w3.org/Graphics/SVG/1.1/DTD/svg11.dtd">
<svg xmlns:xlink="http://www.w3.org/1999/xlink" width="371.52pt" height="319.332036pt" viewBox="0 0 371.52 319.332036" xmlns="http://www.w3.org/2000/svg" version="1.1">
 <metadata>
  <rdf:RDF xmlns:dc="http://purl.org/dc/elements/1.1/" xmlns:cc="http://creativecommons.org/ns#" xmlns:rdf="http://www.w3.org/1999/02/22-rdf-syntax-ns#">
   <cc:Work>
    <dc:type rdf:resource="http://purl.org/dc/dcmitype/StillImage"/>
    <dc:date>2025-12-22T21:33:38.129170</dc:date>
    <dc:format>image/svg+xml</dc:format>
    <dc:creator>
     <cc:Agent>
      <dc:title>Matplotlib v3.10.8, https://matplotlib.org/</dc:title>
     </cc:Agent>
    </dc:creator>
   </cc:Work>
  </rdf:RDF>
 </metadata>
 <defs>
  <style type="text/css">*{stroke-linejoin: round; stroke-linecap: butt}</style>
 </defs>
 <g id="figure_1">
  <g id="patch_1">
   <path d="M 0 319.332036 
L 371.52 319.332036 
L 371.52 0 
L 0 0 
z
" style="fill: #ffffff"/>
  </g>
  <g id="axes_1">
   <g id="line2d_1">
    <path d="M 185.76 19.296 
L 217.556218 42.397304 
L 205.411143 79.776 
L 166.108857 79.776 
L 153.963782 42.397304 
L 185.76 19.296 
" clip-path="url(#pba306f367a)" style="fill: none; stroke: #000000; stroke-linecap: square"/>
   </g>
   <g id="line2d_2">
    <path d="M 185.76 19.296 
L 249.352435 65.498609 
L 225.062286 140.256 
L 146.457714 140.256 
L 122.167565 65.498609 
L 185.76 19.296 
" clip-path="url(#pba306f367a)" style="fill: none; stroke: #000000; stroke-linecap: square"/>
   </g>
   <g id="line2d_3">
    <path d="M 185.76 19.296 
L 281.148653 88.599913 
L 244.71343 200.736 
L 126.80657 200.736 
L 90.371347 88.599913 
L 185.76 19.296 
" clip-path="url(#pba306f367a)" style="fill: none; stroke: #000000; stroke-linecap: square"/>
   </g>
   <g id="line2d_4">
    <path d="M 185.76 19.296 
L 312.944871 111.701217 
L 264.364573 261.216 
L 107.155427 261.216 
L 58.575129 111.701217 
L 185.76 19.296 
" clip-path="url(#pba306f367a)" style="fill: none; stroke: #000000; stroke-linecap: square"/>
   </g>
   <g id="line2d_5">
    <defs>
     <path id="mce581c89ec" d="M 0 5 
C 1.326016 5 2.597899 4.473168 3.535534 3.535534 
C 4.473168 2.597899 5 1.326016 5 0 
C 5 -1.326016 4.473168 -2.597899 3.535534 -3.535534 
C 2.597899 -4.473168 1.326016 -5 0 -5 
C -1.326016 -5 -2.597899 -4.473168 -3.535534 -3.535534 
C -4.473168 -2.597899 -5 -1.326016 -5 0 
C -5 1.326016 -4.473168 2.597899 -3.535534 3.535534 
C -2.597899 4.473168 -1.326016 5 0 5 
z
" style="stroke: #008000"/>
    </defs>
    <g clip-path="url(#pba306f367a)">
     <use xlink:href="#mce581c89ec" x="185.76" y="19.296" style="fill: #008000; stroke: #008000"/>
    </g>
   </g>
   <g id="line2d_6">
    <g clip-path="url(#pba306f367a)">
     <use xlink:href="#mce581c89ec" x="217.556218" y="42.397304" style="fill: #008000; stroke: #008000"/>
     <use xlink:href="#mce581c89ec" x="205.411143" y="79.776" style="fill: #008000; stroke: #008000"/>
    </g>
   </g>
   <g id="line2d_7">
    <g clip-path="url(#pba306f367a)">
     <use xlink:href="#mce581c89ec" x="166.108857" y="79.776" style="fill: #008000; stroke: #008000"/>
    </g>
   </g>
   <g id="line2d_8">
    <g clip-path="url(#pba306f367a)">
     <use xlink:href="#mce581c89ec" x="153.963782" y="42.397304" style="fill: #008000; stroke: #008000"/>
    </g>
   </g>
   <g id="line2d_9">
    <g clip-path="url(#pba306f367a)">
     <use xlink:href="#mce581c89ec" x="249.352435" y="65.498609" style="fill: #008000; stroke: #008000"/>
     <use xlink:href="#mce581c89ec" x="237.207361" y="102.877304" style="fill: #008000; stroke: #008000"/>
     <use xlink:href="#mce581c89ec" x="225.062286" y="140.256" style="fill: #008000; stroke: #008000"/>
    </g>
   </g>
   <g id="line2d_10">
    <g clip-path="url(#pba306f367a)">
     <use xlink:href="#mce581c89ec" x="185.76" y="140.256" style="fill: #008000; stroke: #008000"/>
     <use xlink:href="#mce581c89ec" x="146.457714" y="140.256" style="fill: #008000; stroke: #008000"/>
    </g>
   </g>
   <g id="line2d_11">
    <g clip-path="url(#pba306f367a)">
     <use xlink:href="#mce581c89ec" x="134.312639" y="102.877304" style="fill: #008000; stroke: #008000"/>
     <use xlink:href="#mce581c89ec" x="122.167565" y="65.498609" style="fill: #008000; stroke: #008000"/>
    </g>
   </g>
   <g id="line2d_12">
    <g clip-path="url(#pba306f367a)">
     <use xlink:href="#mce581c89ec" x="281.148653" y="88.599913" style="fill: #008000; stroke: #008000"/>
     <use xlink:href="#mce581c89ec" x="269.003579" y="125.978609" style="fill: #008000; stroke: #008000"/>
     <use xlink:href="#mce581c89ec" x="256.858504" y="163.357304" style="fill: #008000; stroke: #008000"/>
     <use xlink:href="#mce581c89ec" x="244.71343" y="200.736" style="fill: #008000; stroke: #008000"/>
    </g>
   </g>
   <g id="line2d_13">
    <g clip-path="url(#pba306f367a)">
     <use xlink:href="#mce581c89ec" x="205.411143" y="200.736" style="fill: #008000; stroke: #008000"/>
     <use xlink:href="#mce581c89ec" x="166.108857" y="200.736" style="fill: #008000; stroke: #008000"/>
     <use xlink:href="#mce581c89ec" x="126.80657" y="200.736" style="fill: #008000; stroke: #008000"/>
    </g>
   </g>
   <g id="line2d_14">
    <g clip-path="url(#pba306f367a)">
     <use xlink:href="#mce581c89ec" x="114.661496" y="163.357304" style="fill: #008000; stroke: #008000"/>
     <use xlink:href="#mce581c89ec" x="102.516421" y="125.978609" style="fill: #008000; stroke: #008000"/>
     <use xlink:href="#mce581c89ec" x="90.371347" y="88.599913" style="fill: #008000; stroke: #008000"/>
    </g>
   </g>
   <g id="line2d_15">
    <g clip-path="url(#pba306f367a)">
     <use xlink:href="#mce581c89ec" x="312.944871" y="111.701217" style="fill: #008000; stroke: #008000"/>
     <use xlink:href="#mce581c89ec" x="300.799796" y="149.079913" style="fill: #008000; stroke: #008000"/>
     <use xlink:href="#mce581c89ec" x="288.654722" y="186.458609" style="fill: #008000; stroke: #008000"/>
     <use xlink:href="#mce581c89ec" x="276.509647" y="223.837304" style="fill: #008000; stroke: #008000"/>
     <use xlink:href="#mce581c89ec" x="264.364573" y="261.216" style="fill: #008000; stroke: #008000"/>
    </g>
   </g>
   <g id="line2d_16">
    <g clip-path="url(#pba306f367a)">
     <use xlink:href="#mce581c89ec" x="225.062286" y="261.216" style="fill: #008000; stroke: #008000"/>
     <use xlink:href="#mce581c89ec" x="185.76" y="261.216" style="fill: #008000; stroke: #008000"/>
     <use xlink:href="#mce581c89ec" x="146.457714" y="261.216" style="fill: #008000; stroke: #008000"/>
     <use xlink:href="#mce581c89ec" x="107.155427" y="261.216" style="fill: #008000; stroke: #008000"/>
    </g>
   </g>
   <g id="line2d_17">
    <g clip-path="url(#pba306f367a)">
     <use xlink:href="#mce581c89ec" x="95.010353" y="223.837304" style="fill: #008000; stroke: #008000"/>
     <use xlink:href="#mce581c89ec" x="82.865278" y="186.458609" style="fill: #008000; stroke: #008000"/>
     <use xlink:href="#mce581c89ec" x="70.720204" y="149.079913" style="fill: #008000; stroke: #008000"/>
     <use xlink:href="#mce581c89ec" x="58.575129" y="111.701217" style="fill: #008000; stroke: #008000"/>
    </g>
   </g>
   <g id="text_1">
    <!-- $P_{5}=35$ -->
    <g transform="translate(164.28 309.636411) scale(0.12 -0.12)">
     <defs>
      <path id="DejaVuSans-Oblique-50" d="M 1081 4666 
L 2541 4666 
Q 3178 4666 3512 4369 
Q 3847 4072 3847 3500 
Q 3847 2731 3353 2303 
Q 2859 1875 1966 1875 
L 1172 1875 
L 806 0 
L 172 0 
L 1081 4666 
z
M 1613 4147 
L 1275 2394 
L 2069 2394 
Q 2606 2394 2893 2669 
Q 3181 2944 3181 3456 
Q 3181 3784 2986 3965 
Q 2791 4147 2438 4147 
L 1613 4147 
z
" transform="scale(0.015625)"/>
      <path id="DejaVuSans-35" d="M 691 4666 
L 3169 4666 
L 3169 4134 
L 1269 4134 
L 1269 2991 
Q 1406 3038 1543 3061 
Q 1681 3084 1819 3084 
Q 2600 3084 3056 2656 
Q 3513 2228 3513 1497 
Q 3513 744 3044 326 
Q 2575 -91 1722 -91 
Q 1428 -91 1123 -41 
Q 819 9 494 109 
L 494 744 
Q 775 591 1075 516 
Q 1375 441 1709 441 
Q 2250 441 2565 725 
Q 2881 1009 2881 1497 
Q 2881 1984 2565 2268 
Q 2250 2553 1709 2553 
Q 1456 2553 1204 2497 
Q 953 2441 691 2322 
L 691 4666 
z
" transform="scale(0.015625)"/>
      <path id="DejaVuSans-3d" d="M 678 2906 
L 4684 2906 
L 4684 2381 
L 678 2381 
L 678 2906 
z
M 678 1631 
L 4684 1631 
L 4684 1100 
L 678 1100 
L 678 1631 
z
" transform="scale(0.015625)"/>
      <path id="DejaVuSans-33" d="M 2597 2516 
Q 3050 2419 3304 2112 
Q 3559 1806 3559 1356 
Q 3559 666 3084 287 
Q 2609 -91 1734 -91 
Q 1441 -91 1130 -33 
Q 819 25 488 141 
L 488 750 
Q 750 597 1062 519 
Q 1375 441 1716 441 
Q 2309 441 2620 675 
Q 2931 909 2931 1356 
Q 2931 1769 2642 2001 
Q 2353 2234 1838 2234 
L 1294 2234 
L 1294 2753 
L 1863 2753 
Q 2328 2753 2575 2939 
Q 2822 3125 2822 3475 
Q 2822 3834 2567 4026 
Q 2313 4219 1838 4219 
Q 1578 4219 1281 4162 
Q 984 4106 628 3988 
L 628 4550 
Q 988 4650 1302 4700 
Q 1616 4750 1894 4750 
Q 2613 4750 3031 4423 
Q 3450 4097 3450 3541 
Q 3450 3153 3228 2886 
Q 3006 2619 2597 2516 
z
" transform="scale(0.015625)"/>
     </defs>
     <use xlink:href="#DejaVuSans-Oblique-50" transform="translate(0 0.78125)"/>
     <use xlink:href="#DejaVuSans-35" transform="translate(60.302734 -15.625) scale(0.7)"/>
     <use xlink:href="#DejaVuSans-3d" transform="translate(127.055664 0.78125)"/>
     <use xlink:href="#DejaVuSans-33" transform="translate(230.327148 0.78125)"/>
     <use xlink:href="#DejaVuSans-35" transform="translate(293.950195 0.78125)"/>
    </g>
   </g>
  </g>
 </g>
 <defs>
  <clipPath id="pba306f367a">
   <rect x="7.2" y="7.2" width="357.12" height="266.112"/>
  </clipPath>
 </defs>
</svg>
