<?xml version="1.0" encoding="utf-8" standalone="no"?>
<!DOCTYPE svg PUBLIC "-//W3C//DTD SVG 1.1//EN"
  "http://www.w3.org/Graphics/SVG/1.1/DTD/svg11.dtd">
<svg xmlns:xlink="http://www.w3.org/1999/xlink" width="371.52pt" height="309.630375pt" viewBox="0 0 371.52 309.630375" xmlns="http://www.w3.org/2000/svg" version="1.1">
 <metadata>
  <rdf:RDF xmlns:dc="http://purl.org/dc/elements/1.1/" xmlns:cc="http://creativecommons.org/ns#" xmlns:rdf="http://www.w3.org/1999/02/22-rdf-syntax-ns#">
   <cc:Work>
    <dc:type rdf:resource="http://purl.org/dc/dcmitype/StillImage"/>
    <dc:date>2025-12-22T20:47:21.314510</dc:date>
    <dc:format>image/svg+xml</dc:format>
    <dc:creator>
     <cc:Agent>
      <dc:title>Matplotlib v3.10.8, https://matplotlib.org/</dc:title>
     </cc:Agent>
    </dc:creator>
   </cc:Work>
  </rdf:RDF>
 </metadata>
 <defs>
  <style type="text/css">*{stroke-linejoin: round; stroke-linecap: butt}</style>
 </defs>
 <g id="figure_1">
  <g id="patch_1">
   <path d="M 0 309.630375 
L 371.52 309.630375 
L 371.52 0 
L 0 0 
z
" style="fill: #ffffff"/>
  </g>
  <g id="axes_1">
   <g id="line2d_1">
    <path d="M 64.8 261.216 
L 306.72 261.216 
L 185.76 19.296 
L 64.8 261.216 
" clip-path="url(#p3db3897340)" style="fill: none; stroke: #000000; stroke-linecap: square"/>
   </g>
   <g id="line2d_2">
    <defs>
     <path id="m6148278812" d="M 0 5 
C 1.326016 5 2.597899 4.473168 3.535534 3.535534 
C 4.473168 2.597899 5 1.326016 5 0 
C 5 -1.326016 4.473168 -2.597899 3.535534 -3.535534 
C 2.597899 -4.473168 1.326016 -5 0 -5 
C -1.326016 -5 -2.597899 -4.473168 -3.535534 -3.535534 
C -4.473168 -2.597899 -5 -1.326016 -5 0 
C -5 1.326016 -4.473168 2.597899 -3.535534 3.535534 
C -2.597899 4.473168 -1.326016 5 0 5 
z
" style="stroke: #000000"/>
    </defs>
    <g clip-path="url(#p3db3897340)">
     <use xlink:href="#m6148278812" x="64.8" y="261.216" style="stroke: #000000"/>
     <use xlink:href="#m6148278812" x="125.28" y="261.216" style="stroke: #000000"/>
     <use xlink:href="#m6148278812" x="185.76" y="261.216" style="stroke: #000000"/>
     <use xlink:href="#m6148278812" x="246.24" y="261.216" style="stroke: #000000"/>
     <use xlink:href="#m6148278812" x="306.72" y="261.216" style="stroke: #000000"/>
    </g>
   </g>
   <g id="line2d_3">
    <g clip-path="url(#p3db3897340)">
     <use xlink:href="#m6148278812" x="95.04" y="200.736" style="stroke: #000000"/>
     <use xlink:href="#m6148278812" x="155.52" y="200.736" style="stroke: #000000"/>
     <use xlink:href="#m6148278812" x="216" y="200.736" style="stroke: #000000"/>
     <use xlink:href="#m6148278812" x="276.48" y="200.736" style="stroke: #000000"/>
    </g>
   </g>
   <g id="line2d_4">
    <g clip-path="url(#p3db3897340)">
     <use xlink:href="#m6148278812" x="125.28" y="140.256" style="stroke: #000000"/>
     <use xlink:href="#m6148278812" x="185.76" y="140.256" style="stroke: #000000"/>
     <use xlink:href="#m6148278812" x="246.24" y="140.256" style="stroke: #000000"/>
    </g>
   </g>
   <g id="line2d_5">
    <g clip-path="url(#p3db3897340)">
     <use xlink:href="#m6148278812" x="155.52" y="79.776" style="stroke: #000000"/>
     <use xlink:href="#m6148278812" x="216" y="79.776" style="stroke: #000000"/>
    </g>
   </g>
   <g id="line2d_6">
    <g clip-path="url(#p3db3897340)">
     <use xlink:href="#m6148278812" x="185.76" y="19.296" style="stroke: #000000"/>
    </g>
   </g>
   <g id="text_1">
    <!-- $T_{5}=15$ -->
    <g transform="translate(168.18 300.045375) scale(0.12 -0.12)">
     <defs>
      <path id="STIXGeneral-Italic-54" d="M 4051 4179 
L 3770 3130 
L 3661 3142 
Q 3680 3302 3680 3437 
Q 3680 3955 3034 3955 
L 2662 3955 
L 1786 819 
Q 1696 506 1696 397 
Q 1696 250 1766 195 
Q 1837 141 2035 122 
L 2259 102 
L 2259 0 
L 416 0 
L 416 102 
Q 749 134 889 230 
Q 1030 326 1101 582 
L 2016 3955 
Q 1254 3955 988 3817 
Q 723 3680 493 3162 
L 378 3187 
L 646 4179 
L 4051 4179 
z
" transform="scale(0.015625)"/>
      <path id="STIXGeneral-Regular-35" d="M 2803 4358 
L 2573 3814 
Q 2534 3731 2400 3731 
L 1158 3731 
L 902 3187 
Q 1606 3053 1920 2896 
Q 2234 2739 2502 2368 
Q 2726 2061 2726 1555 
Q 2726 1094 2576 780 
Q 2426 467 2099 224 
Q 1664 -90 1011 -90 
Q 646 -90 422 19 
Q 198 128 198 307 
Q 198 550 486 550 
Q 717 550 960 352 
Q 1210 147 1414 147 
Q 1747 147 2012 480 
Q 2278 813 2278 1229 
Q 2278 1843 1850 2189 
Q 1293 2637 486 2637 
Q 410 2637 410 2688 
L 416 2720 
L 1114 4237 
L 2438 4237 
Q 2547 4237 2608 4269 
Q 2669 4301 2746 4403 
L 2803 4358 
z
" transform="scale(0.015625)"/>
      <path id="STIXGeneral-Regular-3d" d="M 4077 2048 
L 307 2048 
L 307 2470 
L 4077 2470 
L 4077 2048 
z
M 4077 768 
L 307 768 
L 307 1190 
L 4077 1190 
L 4077 768 
z
" transform="scale(0.015625)"/>
      <path id="STIXGeneral-Regular-31" d="M 2522 0 
L 755 0 
L 755 96 
Q 1107 115 1235 227 
Q 1363 339 1363 608 
L 1363 3482 
Q 1363 3795 1171 3795 
Q 1082 3795 883 3718 
L 710 3654 
L 710 3744 
L 1856 4326 
L 1914 4307 
L 1914 486 
Q 1914 275 2042 185 
Q 2170 96 2522 96 
L 2522 0 
z
" transform="scale(0.015625)"/>
     </defs>
     <use xlink:href="#STIXGeneral-Italic-54" transform="translate(0 0.203125)"/>
     <use xlink:href="#STIXGeneral-Regular-35" transform="translate(55.599991 -13.025) scale(0.7)"/>
     <use xlink:href="#STIXGeneral-Regular-3d" transform="translate(109.449352 0.203125)"/>
     <use xlink:href="#STIXGeneral-Regular-31" transform="translate(192.389333 0.203125)"/>
     <use xlink:href="#STIXGeneral-Regular-35" transform="translate(242.389317 0.203125)"/>
    </g>
   </g>
  </g>
 </g>
 <defs>
  <clipPath id="p3db3897340">
   <rect x="7.2" y="7.2" width="357.12" height="266.112"/>
  </clipPath>
 </defs>
</svg>
