<?xml version="1.0" encoding="utf-8" standalone="no"?>
<!DOCTYPE svg PUBLIC "-//W3C//DTD SVG 1.1//EN"
  "http://www.w3.org/Graphics/SVG/1.1/DTD/svg11.dtd">
<svg xmlns:xlink="http://www.w3.org/1999/xlink" width="684pt" height="457.92pt" viewBox="0 0 684 457.92" xmlns="http://www.w3.org/2000/svg" version="1.1">
 <metadata>
  <rdf:RDF xmlns:dc="http://purl.org/dc/elements/1.1/" xmlns:cc="http://creativecommons.org/ns#" xmlns:rdf="http://www.w3.org/1999/02/22-rdf-syntax-ns#">
   <cc:Work>
    <dc:type rdf:resource="http://purl.org/dc/dcmitype/StillImage"/>
    <dc:date>2025-12-22T21:36:22.974789</dc:date>
    <dc:format>image/svg+xml</dc:format>
    <dc:creator>
     <cc:Agent>
      <dc:title>Matplotlib v3.10.8, https://matplotlib.org/</dc:title>
     </cc:Agent>
    </dc:creator>
   </cc:Work>
  </rdf:RDF>
 </metadata>
 <defs>
  <style type="text/css">*{stroke-linejoin: round; stroke-linecap: butt}</style>
 </defs>
 <g id="figure_1">
  <g id="patch_1">
   <path d="M 0 457.92 
L 684 457.92 
L 684 0 
L 0 0 
z
" style="fill: #ffffff"/>
  </g>
  <g id="axes_1">
   <g id="patch_2">
    <path d="M 7.2 228.96 
L 230.4 228.96 
L 230.4 7.2 
L 7.2 7.2 
z
" style="fill: #ffffff"/>
   </g>
   <g id="matplotlib.axis_1"/>
   <g id="matplotlib.axis_2"/>
   <g id="line2d_1">
    <defs>
     <path id="ma750da1905" d="M 0 5 
C 1.326016 5 2.597899 4.473168 3.535534 3.535534 
C 4.473168 2.597899 5 1.326016 5 0 
C 5 -1.326016 4.473168 -2.597899 3.535534 -3.535534 
C 2.597899 -4.473168 1.326016 -5 0 -5 
C -1.326016 -5 -2.597899 -4.473168 -3.535534 -3.535534 
C -4.473168 -2.597899 -5 -1.326016 -5 0 
C -5 1.326016 -4.473168 2.597899 -3.535534 3.535534 
C -2.597899 4.473168 -1.326016 5 0 5 
z
" style="stroke: #000000"/>
    </defs>
    <g clip-path="url(#p22ddddf9c0)">
     <use xlink:href="#ma750da1905" x="118.8" y="181.851429" style="stroke: #000000"/>
    </g>
   </g>
   <g id="patch_3">
    <path d="M 7.2 228.96 
L 7.2 7.2 
" style="fill: none; stroke: #000000; stroke-width: 0.8; stroke-linejoin: miter; stroke-linecap: square"/>
   </g>
   <g id="patch_4">
    <path d="M 230.4 228.96 
L 230.4 7.2 
" style="fill: none; stroke: #000000; stroke-width: 0.8; stroke-linejoin: miter; stroke-linecap: square"/>
   </g>
   <g id="patch_5">
    <path d="M 7.2 228.96 
L 230.4 228.96 
" style="fill: none; stroke: #000000; stroke-width: 0.8; stroke-linejoin: miter; stroke-linecap: square"/>
   </g>
   <g id="patch_6">
    <path d="M 7.2 7.2 
L 230.4 7.2 
" style="fill: none; stroke: #000000; stroke-width: 0.8; stroke-linejoin: miter; stroke-linecap: square"/>
   </g>
   <g id="text_1">
    <!-- $T_{1}=1$ -->
    <g transform="translate(101.1 206.912411) scale(0.12 -0.12)">
     <defs>
      <path id="DejaVuSans-Oblique-54" d="M 378 4666 
L 4325 4666 
L 4225 4134 
L 2559 4134 
L 1759 0 
L 1125 0 
L 1925 4134 
L 275 4134 
L 378 4666 
z
" transform="scale(0.015625)"/>
      <path id="DejaVuSans-31" d="M 794 531 
L 1825 531 
L 1825 4091 
L 703 3866 
L 703 4441 
L 1819 4666 
L 2450 4666 
L 2450 531 
L 3481 531 
L 3481 0 
L 794 0 
L 794 531 
z
" transform="scale(0.015625)"/>
      <path id="DejaVuSans-3d" d="M 678 2906 
L 4684 2906 
L 4684 2381 
L 678 2381 
L 678 2906 
z
M 678 1631 
L 4684 1631 
L 4684 1100 
L 678 1100 
L 678 1631 
z
" transform="scale(0.015625)"/>
     </defs>
     <use xlink:href="#DejaVuSans-Oblique-54" transform="translate(0 0.09375)"/>
     <use xlink:href="#DejaVuSans-31" transform="translate(61.083984 -16.3125) scale(0.7)"/>
     <use xlink:href="#DejaVuSans-3d" transform="translate(127.836914 0.09375)"/>
     <use xlink:href="#DejaVuSans-31" transform="translate(231.108398 0.09375)"/>
    </g>
   </g>
  </g>
  <g id="axes_2">
   <g id="patch_7">
    <path d="M 230.4 228.96 
L 453.6 228.96 
L 453.6 7.2 
L 230.4 7.2 
z
" style="fill: #ffffff"/>
   </g>
   <g id="line2d_2">
    <path d="M 326.057143 181.851429 
L 357.942857 181.851429 
L 342 149.965714 
L 326.057143 181.851429 
" clip-path="url(#p911e2ec255)" style="fill: none; stroke: #000000; stroke-linecap: square"/>
   </g>
   <g id="matplotlib.axis_3"/>
   <g id="matplotlib.axis_4"/>
   <g id="line2d_3">
    <g clip-path="url(#p911e2ec255)">
     <use xlink:href="#ma750da1905" x="326.057143" y="181.851429" style="stroke: #000000"/>
     <use xlink:href="#ma750da1905" x="357.942857" y="181.851429" style="stroke: #000000"/>
    </g>
   </g>
   <g id="line2d_4">
    <g clip-path="url(#p911e2ec255)">
     <use xlink:href="#ma750da1905" x="342" y="149.965714" style="stroke: #000000"/>
    </g>
   </g>
   <g id="patch_8">
    <path d="M 453.6 228.96 
L 453.6 7.2 
" style="fill: none; stroke: #000000; stroke-width: 0.8; stroke-linejoin: miter; stroke-linecap: square"/>
   </g>
   <g id="patch_9">
    <path d="M 230.4 228.96 
L 453.6 228.96 
" style="fill: none; stroke: #000000; stroke-width: 0.8; stroke-linejoin: miter; stroke-linecap: square"/>
   </g>
   <g id="patch_10">
    <path d="M 230.4 7.2 
L 453.6 7.2 
" style="fill: none; stroke: #000000; stroke-width: 0.8; stroke-linejoin: miter; stroke-linecap: square"/>
   </g>
   <g id="text_2">
    <!-- $T_{2}=3$ -->
    <g transform="translate(324.3 206.912411) scale(0.12 -0.12)">
     <defs>
      <path id="DejaVuSans-32" d="M 1228 531 
L 3431 531 
L 3431 0 
L 469 0 
L 469 531 
Q 828 903 1448 1529 
Q 2069 2156 2228 2338 
Q 2531 2678 2651 2914 
Q 2772 3150 2772 3378 
Q 2772 3750 2511 3984 
Q 2250 4219 1831 4219 
Q 1534 4219 1204 4116 
Q 875 4013 500 3803 
L 500 4441 
Q 881 4594 1212 4672 
Q 1544 4750 1819 4750 
Q 2544 4750 2975 4387 
Q 3406 4025 3406 3419 
Q 3406 3131 3298 2873 
Q 3191 2616 2906 2266 
Q 2828 2175 2409 1742 
Q 1991 1309 1228 531 
z
" transform="scale(0.015625)"/>
      <path id="DejaVuSans-33" d="M 2597 2516 
Q 3050 2419 3304 2112 
Q 3559 1806 3559 1356 
Q 3559 666 3084 287 
Q 2609 -91 1734 -91 
Q 1441 -91 1130 -33 
Q 819 25 488 141 
L 488 750 
Q 750 597 1062 519 
Q 1375 441 1716 441 
Q 2309 441 2620 675 
Q 2931 909 2931 1356 
Q 2931 1769 2642 2001 
Q 2353 2234 1838 2234 
L 1294 2234 
L 1294 2753 
L 1863 2753 
Q 2328 2753 2575 2939 
Q 2822 3125 2822 3475 
Q 2822 3834 2567 4026 
Q 2313 4219 1838 4219 
Q 1578 4219 1281 4162 
Q 984 4106 628 3988 
L 628 4550 
Q 988 4650 1302 4700 
Q 1616 4750 1894 4750 
Q 2613 4750 3031 4423 
Q 3450 4097 3450 3541 
Q 3450 3153 3228 2886 
Q 3006 2619 2597 2516 
z
" transform="scale(0.015625)"/>
     </defs>
     <use xlink:href="#DejaVuSans-Oblique-54" transform="translate(0 0.78125)"/>
     <use xlink:href="#DejaVuSans-32" transform="translate(61.083984 -15.625) scale(0.7)"/>
     <use xlink:href="#DejaVuSans-3d" transform="translate(127.836914 0.78125)"/>
     <use xlink:href="#DejaVuSans-33" transform="translate(231.108398 0.78125)"/>
    </g>
   </g>
  </g>
  <g id="axes_3">
   <g id="patch_11">
    <path d="M 453.6 228.96 
L 676.8 228.96 
L 676.8 7.2 
L 453.6 7.2 
z
" style="fill: #ffffff"/>
   </g>
   <g id="line2d_5">
    <path d="M 533.314286 181.851429 
L 597.085714 181.851429 
L 565.2 118.08 
L 533.314286 181.851429 
" clip-path="url(#p6a7b9cd81c)" style="fill: none; stroke: #000000; stroke-linecap: square"/>
   </g>
   <g id="matplotlib.axis_5"/>
   <g id="matplotlib.axis_6"/>
   <g id="line2d_6">
    <g clip-path="url(#p6a7b9cd81c)">
     <use xlink:href="#ma750da1905" x="533.314286" y="181.851429" style="stroke: #000000"/>
     <use xlink:href="#ma750da1905" x="565.2" y="181.851429" style="stroke: #000000"/>
     <use xlink:href="#ma750da1905" x="597.085714" y="181.851429" style="stroke: #000000"/>
    </g>
   </g>
   <g id="line2d_7">
    <g clip-path="url(#p6a7b9cd81c)">
     <use xlink:href="#ma750da1905" x="549.257143" y="149.965714" style="stroke: #000000"/>
     <use xlink:href="#ma750da1905" x="581.142857" y="149.965714" style="stroke: #000000"/>
    </g>
   </g>
   <g id="line2d_8">
    <g clip-path="url(#p6a7b9cd81c)">
     <use xlink:href="#ma750da1905" x="565.2" y="118.08" style="stroke: #000000"/>
    </g>
   </g>
   <g id="patch_12">
    <path d="M 676.8 228.96 
L 676.8 7.2 
" style="fill: none; stroke: #000000; stroke-width: 0.8; stroke-linejoin: miter; stroke-linecap: square"/>
   </g>
   <g id="patch_13">
    <path d="M 453.6 228.96 
L 676.8 228.96 
" style="fill: none; stroke: #000000; stroke-width: 0.8; stroke-linejoin: miter; stroke-linecap: square"/>
   </g>
   <g id="patch_14">
    <path d="M 453.6 7.2 
L 676.8 7.2 
" style="fill: none; stroke: #000000; stroke-width: 0.8; stroke-linejoin: miter; stroke-linecap: square"/>
   </g>
   <g id="text_3">
    <!-- $T_{3}=6$ -->
    <g transform="translate(547.5 206.912411) scale(0.12 -0.12)">
     <defs>
      <path id="DejaVuSans-36" d="M 2113 2584 
Q 1688 2584 1439 2293 
Q 1191 2003 1191 1497 
Q 1191 994 1439 701 
Q 1688 409 2113 409 
Q 2538 409 2786 701 
Q 3034 994 3034 1497 
Q 3034 2003 2786 2293 
Q 2538 2584 2113 2584 
z
M 3366 4563 
L 3366 3988 
Q 3128 4100 2886 4159 
Q 2644 4219 2406 4219 
Q 1781 4219 1451 3797 
Q 1122 3375 1075 2522 
Q 1259 2794 1537 2939 
Q 1816 3084 2150 3084 
Q 2853 3084 3261 2657 
Q 3669 2231 3669 1497 
Q 3669 778 3244 343 
Q 2819 -91 2113 -91 
Q 1303 -91 875 529 
Q 447 1150 447 2328 
Q 447 3434 972 4092 
Q 1497 4750 2381 4750 
Q 2619 4750 2861 4703 
Q 3103 4656 3366 4563 
z
" transform="scale(0.015625)"/>
     </defs>
     <use xlink:href="#DejaVuSans-Oblique-54" transform="translate(0 0.78125)"/>
     <use xlink:href="#DejaVuSans-33" transform="translate(61.083984 -15.625) scale(0.7)"/>
     <use xlink:href="#DejaVuSans-3d" transform="translate(127.836914 0.78125)"/>
     <use xlink:href="#DejaVuSans-36" transform="translate(231.108398 0.78125)"/>
    </g>
   </g>
  </g>
  <g id="axes_4">
   <g id="patch_15">
    <path d="M 7.2 450.72 
L 230.4 450.72 
L 230.4 228.96 
L 7.2 228.96 
z
" style="fill: #ffffff"/>
   </g>
   <g id="line2d_9">
    <path d="M 70.971429 403.611429 
L 166.628571 403.611429 
L 118.8 307.954286 
L 70.971429 403.611429 
" clip-path="url(#pa17cde60fa)" style="fill: none; stroke: #000000; stroke-linecap: square"/>
   </g>
   <g id="matplotlib.axis_7"/>
   <g id="matplotlib.axis_8"/>
   <g id="line2d_10">
    <g clip-path="url(#pa17cde60fa)">
     <use xlink:href="#ma750da1905" x="70.971429" y="403.611429" style="stroke: #000000"/>
     <use xlink:href="#ma750da1905" x="102.857143" y="403.611429" style="stroke: #000000"/>
     <use xlink:href="#ma750da1905" x="134.742857" y="403.611429" style="stroke: #000000"/>
     <use xlink:href="#ma750da1905" x="166.628571" y="403.611429" style="stroke: #000000"/>
    </g>
   </g>
   <g id="line2d_11">
    <g clip-path="url(#pa17cde60fa)">
     <use xlink:href="#ma750da1905" x="86.914286" y="371.725714" style="stroke: #000000"/>
     <use xlink:href="#ma750da1905" x="118.8" y="371.725714" style="stroke: #000000"/>
     <use xlink:href="#ma750da1905" x="150.685714" y="371.725714" style="stroke: #000000"/>
    </g>
   </g>
   <g id="line2d_12">
    <g clip-path="url(#pa17cde60fa)">
     <use xlink:href="#ma750da1905" x="102.857143" y="339.84" style="stroke: #000000"/>
     <use xlink:href="#ma750da1905" x="134.742857" y="339.84" style="stroke: #000000"/>
    </g>
   </g>
   <g id="line2d_13">
    <g clip-path="url(#pa17cde60fa)">
     <use xlink:href="#ma750da1905" x="118.8" y="307.954286" style="stroke: #000000"/>
    </g>
   </g>
   <g id="patch_16">
    <path d="M 7.2 450.72 
L 7.2 228.96 
" style="fill: none; stroke: #000000; stroke-width: 0.8; stroke-linejoin: miter; stroke-linecap: square"/>
   </g>
   <g id="patch_17">
    <path d="M 230.4 450.72 
L 230.4 228.96 
" style="fill: none; stroke: #000000; stroke-width: 0.8; stroke-linejoin: miter; stroke-linecap: square"/>
   </g>
   <g id="patch_18">
    <path d="M 7.2 450.72 
L 230.4 450.72 
" style="fill: none; stroke: #000000; stroke-width: 0.8; stroke-linejoin: miter; stroke-linecap: square"/>
   </g>
   <g id="text_4">
    <!-- $T_{4}=10$ -->
    <g transform="translate(97.26 428.672411) scale(0.12 -0.12)">
     <defs>
      <path id="DejaVuSans-34" d="M 2419 4116 
L 825 1625 
L 2419 1625 
L 2419 4116 
z
M 2253 4666 
L 3047 4666 
L 3047 1625 
L 3713 1625 
L 3713 1100 
L 3047 1100 
L 3047 0 
L 2419 0 
L 2419 1100 
L 313 1100 
L 313 1709 
L 2253 4666 
z
" transform="scale(0.015625)"/>
      <path id="DejaVuSans-30" d="M 2034 4250 
Q 1547 4250 1301 3770 
Q 1056 3291 1056 2328 
Q 1056 1369 1301 889 
Q 1547 409 2034 409 
Q 2525 409 2770 889 
Q 3016 1369 3016 2328 
Q 3016 3291 2770 3770 
Q 2525 4250 2034 4250 
z
M 2034 4750 
Q 2819 4750 3233 4129 
Q 3647 3509 3647 2328 
Q 3647 1150 3233 529 
Q 2819 -91 2034 -91 
Q 1250 -91 836 529 
Q 422 1150 422 2328 
Q 422 3509 836 4129 
Q 1250 4750 2034 4750 
z
" transform="scale(0.015625)"/>
     </defs>
     <use xlink:href="#DejaVuSans-Oblique-54" transform="translate(0 0.78125)"/>
     <use xlink:href="#DejaVuSans-34" transform="translate(61.083984 -15.625) scale(0.7)"/>
     <use xlink:href="#DejaVuSans-3d" transform="translate(127.836914 0.78125)"/>
     <use xlink:href="#DejaVuSans-31" transform="translate(231.108398 0.78125)"/>
     <use xlink:href="#DejaVuSans-30" transform="translate(294.731445 0.78125)"/>
    </g>
   </g>
  </g>
  <g id="axes_5">
   <g id="patch_19">
    <path d="M 230.4 450.72 
L 453.6 450.72 
L 453.6 228.96 
L 230.4 228.96 
z
" style="fill: #ffffff"/>
   </g>
   <g id="line2d_14">
    <path d="M 278.228571 403.611429 
L 405.771429 403.611429 
L 342 276.068571 
L 278.228571 403.611429 
" clip-path="url(#pab6b63317d)" style="fill: none; stroke: #000000; stroke-linecap: square"/>
   </g>
   <g id="matplotlib.axis_9"/>
   <g id="matplotlib.axis_10"/>
   <g id="line2d_15">
    <g clip-path="url(#pab6b63317d)">
     <use xlink:href="#ma750da1905" x="278.228571" y="403.611429" style="stroke: #000000"/>
     <use xlink:href="#ma750da1905" x="310.114286" y="403.611429" style="stroke: #000000"/>
     <use xlink:href="#ma750da1905" x="342" y="403.611429" style="stroke: #000000"/>
     <use xlink:href="#ma750da1905" x="373.885714" y="403.611429" style="stroke: #000000"/>
     <use xlink:href="#ma750da1905" x="405.771429" y="403.611429" style="stroke: #000000"/>
    </g>
   </g>
   <g id="line2d_16">
    <g clip-path="url(#pab6b63317d)">
     <use xlink:href="#ma750da1905" x="294.171429" y="371.725714" style="stroke: #000000"/>
     <use xlink:href="#ma750da1905" x="326.057143" y="371.725714" style="stroke: #000000"/>
     <use xlink:href="#ma750da1905" x="357.942857" y="371.725714" style="stroke: #000000"/>
     <use xlink:href="#ma750da1905" x="389.828571" y="371.725714" style="stroke: #000000"/>
    </g>
   </g>
   <g id="line2d_17">
    <g clip-path="url(#pab6b63317d)">
     <use xlink:href="#ma750da1905" x="310.114286" y="339.84" style="stroke: #000000"/>
     <use xlink:href="#ma750da1905" x="342" y="339.84" style="stroke: #000000"/>
     <use xlink:href="#ma750da1905" x="373.885714" y="339.84" style="stroke: #000000"/>
    </g>
   </g>
   <g id="line2d_18">
    <g clip-path="url(#pab6b63317d)">
     <use xlink:href="#ma750da1905" x="326.057143" y="307.954286" style="stroke: #000000"/>
     <use xlink:href="#ma750da1905" x="357.942857" y="307.954286" style="stroke: #000000"/>
    </g>
   </g>
   <g id="line2d_19">
    <g clip-path="url(#pab6b63317d)">
     <use xlink:href="#ma750da1905" x="342" y="276.068571" style="stroke: #000000"/>
    </g>
   </g>
   <g id="patch_20">
    <path d="M 453.6 450.72 
L 453.6 228.96 
" style="fill: none; stroke: #000000; stroke-width: 0.8; stroke-linejoin: miter; stroke-linecap: square"/>
   </g>
   <g id="patch_21">
    <path d="M 230.4 450.72 
L 453.6 450.72 
" style="fill: none; stroke: #000000; stroke-width: 0.8; stroke-linejoin: miter; stroke-linecap: square"/>
   </g>
   <g id="text_5">
    <!-- $T_{5}=15$ -->
    <g transform="translate(320.46 428.672411) scale(0.12 -0.12)">
     <defs>
      <path id="DejaVuSans-35" d="M 691 4666 
L 3169 4666 
L 3169 4134 
L 1269 4134 
L 1269 2991 
Q 1406 3038 1543 3061 
Q 1681 3084 1819 3084 
Q 2600 3084 3056 2656 
Q 3513 2228 3513 1497 
Q 3513 744 3044 326 
Q 2575 -91 1722 -91 
Q 1428 -91 1123 -41 
Q 819 9 494 109 
L 494 744 
Q 775 591 1075 516 
Q 1375 441 1709 441 
Q 2250 441 2565 725 
Q 2881 1009 2881 1497 
Q 2881 1984 2565 2268 
Q 2250 2553 1709 2553 
Q 1456 2553 1204 2497 
Q 953 2441 691 2322 
L 691 4666 
z
" transform="scale(0.015625)"/>
     </defs>
     <use xlink:href="#DejaVuSans-Oblique-54" transform="translate(0 0.09375)"/>
     <use xlink:href="#DejaVuSans-35" transform="translate(61.083984 -16.3125) scale(0.7)"/>
     <use xlink:href="#DejaVuSans-3d" transform="translate(127.836914 0.09375)"/>
     <use xlink:href="#DejaVuSans-31" transform="translate(231.108398 0.09375)"/>
     <use xlink:href="#DejaVuSans-35" transform="translate(294.731445 0.09375)"/>
    </g>
   </g>
  </g>
  <g id="axes_6">
   <g id="patch_22">
    <path d="M 453.6 450.72 
L 676.8 450.72 
L 676.8 228.96 
L 453.6 228.96 
z
" style="fill: #ffffff"/>
   </g>
   <g id="line2d_20">
    <path d="M 485.485714 403.611429 
L 644.914286 403.611429 
L 565.2 244.182857 
L 485.485714 403.611429 
" clip-path="url(#p30910bdd6e)" style="fill: none; stroke: #000000; stroke-linecap: square"/>
   </g>
   <g id="matplotlib.axis_11"/>
   <g id="matplotlib.axis_12"/>
   <g id="line2d_21">
    <g clip-path="url(#p30910bdd6e)">
     <use xlink:href="#ma750da1905" x="485.485714" y="403.611429" style="stroke: #000000"/>
     <use xlink:href="#ma750da1905" x="517.371429" y="403.611429" style="stroke: #000000"/>
     <use xlink:href="#ma750da1905" x="549.257143" y="403.611429" style="stroke: #000000"/>
     <use xlink:href="#ma750da1905" x="581.142857" y="403.611429" style="stroke: #000000"/>
     <use xlink:href="#ma750da1905" x="613.028571" y="403.611429" style="stroke: #000000"/>
     <use xlink:href="#ma750da1905" x="644.914286" y="403.611429" style="stroke: #000000"/>
    </g>
   </g>
   <g id="line2d_22">
    <g clip-path="url(#p30910bdd6e)">
     <use xlink:href="#ma750da1905" x="501.428571" y="371.725714" style="stroke: #000000"/>
     <use xlink:href="#ma750da1905" x="533.314286" y="371.725714" style="stroke: #000000"/>
     <use xlink:href="#ma750da1905" x="565.2" y="371.725714" style="stroke: #000000"/>
     <use xlink:href="#ma750da1905" x="597.085714" y="371.725714" style="stroke: #000000"/>
     <use xlink:href="#ma750da1905" x="628.971429" y="371.725714" style="stroke: #000000"/>
    </g>
   </g>
   <g id="line2d_23">
    <g clip-path="url(#p30910bdd6e)">
     <use xlink:href="#ma750da1905" x="517.371429" y="339.84" style="stroke: #000000"/>
     <use xlink:href="#ma750da1905" x="549.257143" y="339.84" style="stroke: #000000"/>
     <use xlink:href="#ma750da1905" x="581.142857" y="339.84" style="stroke: #000000"/>
     <use xlink:href="#ma750da1905" x="613.028571" y="339.84" style="stroke: #000000"/>
    </g>
   </g>
   <g id="line2d_24">
    <g clip-path="url(#p30910bdd6e)">
     <use xlink:href="#ma750da1905" x="533.314286" y="307.954286" style="stroke: #000000"/>
     <use xlink:href="#ma750da1905" x="565.2" y="307.954286" style="stroke: #000000"/>
     <use xlink:href="#ma750da1905" x="597.085714" y="307.954286" style="stroke: #000000"/>
    </g>
   </g>
   <g id="line2d_25">
    <g clip-path="url(#p30910bdd6e)">
     <use xlink:href="#ma750da1905" x="549.257143" y="276.068571" style="stroke: #000000"/>
     <use xlink:href="#ma750da1905" x="581.142857" y="276.068571" style="stroke: #000000"/>
    </g>
   </g>
   <g id="line2d_26">
    <g clip-path="url(#p30910bdd6e)">
     <use xlink:href="#ma750da1905" x="565.2" y="244.182857" style="stroke: #000000"/>
    </g>
   </g>
   <g id="patch_23">
    <path d="M 676.8 450.72 
L 676.8 228.96 
" style="fill: none; stroke: #000000; stroke-width: 0.8; stroke-linejoin: miter; stroke-linecap: square"/>
   </g>
   <g id="patch_24">
    <path d="M 453.6 450.72 
L 676.8 450.72 
" style="fill: none; stroke: #000000; stroke-width: 0.8; stroke-linejoin: miter; stroke-linecap: square"/>
   </g>
   <g id="text_6">
    <!-- $T_{6}=21$ -->
    <g transform="translate(543.66 428.672411) scale(0.12 -0.12)">
     <use xlink:href="#DejaVuSans-Oblique-54" transform="translate(0 0.78125)"/>
     <use xlink:href="#DejaVuSans-36" transform="translate(61.083984 -15.625) scale(0.7)"/>
     <use xlink:href="#DejaVuSans-3d" transform="translate(127.836914 0.78125)"/>
     <use xlink:href="#DejaVuSans-32" transform="translate(231.108398 0.78125)"/>
     <use xlink:href="#DejaVuSans-31" transform="translate(294.731445 0.78125)"/>
    </g>
   </g>
  </g>
 </g>
 <defs>
  <clipPath id="p22ddddf9c0">
   <rect x="7.2" y="7.2" width="223.2" height="221.76"/>
  </clipPath>
  <clipPath id="p911e2ec255">
   <rect x="230.4" y="7.2" width="223.2" height="221.76"/>
  </clipPath>
  <clipPath id="p6a7b9cd81c">
   <rect x="453.6" y="7.2" width="223.2" height="221.76"/>
  </clipPath>
  <clipPath id="pa17cde60fa">
   <rect x="7.2" y="228.96" width="223.2" height="221.76"/>
  </clipPath>
  <clipPath id="pab6b63317d">
   <rect x="230.4" y="228.96" width="223.2" height="221.76"/>
  </clipPath>
  <clipPath id="p30910bdd6e">
   <rect x="453.6" y="228.96" width="223.2" height="221.76"/>
  </clipPath>
 </defs>
</svg>
